<svg width="528" height="556" viewBox="0 0 528 556" fill="none" xmlns="http://www.w3.org/2000/svg">
<g filter="url(#filter0_f_452_35015)">
<ellipse cx="261.029" cy="532.404" rx="179.838" ry="10.4038" fill="url(#paint0_linear_452_35015)"/>
</g>
<path opacity="0.5" fill-rule="evenodd" clip-rule="evenodd" d="M263.908 475.033C353.2 475.033 425.586 486.152 425.586 499.867C425.586 513.582 353.2 524.701 263.908 524.701C174.617 524.701 102.23 513.582 102.23 499.867C102.23 486.152 174.617 475.033 263.908 475.033Z" fill="#B2B1B2"/>
<path fill-rule="evenodd" clip-rule="evenodd" d="M131.934 524.55C133.714 522.058 139.38 517.847 147.958 517.847C156.531 517.847 234.434 524.933 259.356 524.356C284.282 523.782 360.837 519.377 373.048 516.503C385.26 513.632 393.652 514.589 396.956 516.886C400.26 519.184 399.75 523.779 397.97 524.546C396.189 525.317 244.098 551.739 131.934 524.55Z" fill="#959696"/>
<path fill-rule="evenodd" clip-rule="evenodd" d="M132.465 488.781C132.465 488.781 195.543 477.751 271.805 479.39C348.072 481.033 403.096 487.359 403.096 487.359C403.096 487.359 253.336 459.752 132.465 488.781Z" fill="#B2B1B2"/>
<path opacity="0.3" fill-rule="evenodd" clip-rule="evenodd" d="M116.829 0C116.829 0 118.193 19.9909 117.169 24.0898C114.138 36.2626 27.543 78.3597 6.88748 120.957C-8.7714 153.244 6.88233 320.839 8.92524 359.794C10.9681 398.745 21.862 478.701 74.2778 506.889C154.239 549.889 372.815 549.889 452.777 506.889C505.193 478.701 516.087 398.745 518.129 359.794C520.172 320.842 535.826 153.248 520.167 120.957C499.512 78.3597 412.917 36.2626 409.886 24.0898C408.862 19.9909 410.226 0 410.226 0H116.829Z" fill="#CBCBCB"/>
<g clip-path="url(#clip0_452_35015)">
  <g clip-path="url(#juiceLevelClip_452_35015)">
    <path fill-rule="evenodd" clip-rule="evenodd" d="M116.829 0C116.829 0 118.193 19.9909 117.169 24.0898C114.138 36.2626 27.543 78.3597 6.88748 120.957C-8.7714 153.244 6.88233 320.839 8.92524 359.794C10.9681 398.745 21.862 478.701 74.2778 506.889C154.239 549.889 372.815 549.889 452.777 506.889C505.193 478.701 516.087 398.745 518.129 359.794C520.172 320.842 535.826 153.248 520.167 120.957C499.512 78.3597 412.917 36.2626 409.886 24.0898C408.862 19.9909 410.226 0 410.226 0H116.829Z" fill="#EA8E00"/>
  </g>
</g>
<path opacity="0.29" fill-rule="evenodd" clip-rule="evenodd" d="M134.061 20.3258C134.061 20.3258 91.9423 56.9641 68.966 71.3181C45.9897 85.672 16.2106 110.661 14.0802 115.786C7.47803 131.69 129.682 151.216 254.896 153.099C386.8 155.086 515.483 132.128 508.701 115.786C506.576 110.661 476.791 85.6759 453.815 71.322C430.839 56.968 388.72 20.3296 388.72 20.3296L283.477 8.27699L282.977 3.27539L261.391 5.74714L239.804 3.27539L239.305 8.27699L134.061 20.3258Z" fill="white"/>
<path opacity="0.38" fill-rule="evenodd" clip-rule="evenodd" d="M116.983 2.47479C117.308 7.96067 117.966 20.8734 117.169 24.0774C114.138 36.2501 27.543 78.3473 6.88748 120.944C-8.7714 153.232 6.88233 320.826 8.92524 359.781C10.9681 398.733 21.862 478.688 74.2778 506.877C154.239 549.877 372.815 549.877 452.777 506.877C505.193 478.688 516.087 398.733 518.129 359.781C520.172 320.83 535.826 153.236 520.167 120.944C499.512 78.3473 412.917 36.2501 409.886 24.0774C409.083 20.8618 409.747 7.87544 410.071 2.42056C402.728 2.25009 395.467 2.9862 388.382 4.85744C388.382 4.85744 387.147 22.8531 391.788 28.955C396.425 35.0569 504.251 92.3641 516.452 132.42C528.653 172.479 519.478 258.436 515.84 305.624C512.201 352.808 502.414 440.899 476.036 473.253C449.659 505.606 410.21 512.913 373.495 517.458C347.523 520.673 302.919 519.631 271.437 519.449C269.214 519.43 266.862 519.422 264.402 519.422C261.937 519.418 259.586 519.43 257.363 519.449C225.885 519.631 181.276 520.673 155.305 517.458C118.589 512.913 79.1458 505.606 52.768 473.253C26.3903 440.899 16.6029 352.808 12.9647 305.624C9.32661 258.44 0.151534 172.479 12.3524 132.42C24.5532 92.3603 132.375 35.0569 137.016 28.955C141.653 22.8531 140.418 4.85744 140.418 4.85744C132.766 2.83898 124.918 2.13386 116.983 2.47479Z" fill="#959696"/>
<path fill-rule="evenodd" clip-rule="evenodd" d="M120.414 4.88867C120.414 4.88867 159.883 12.5557 194.448 13.0632C229.012 13.5669 377.517 15.3142 390.232 13.0632C402.943 10.8123 410.209 4.89254 410.209 4.89254L120.414 4.88867Z" fill="#B2B1B2"/>
<path opacity="0.5" fill-rule="evenodd" clip-rule="evenodd" d="M129.184 3.24105C129.184 3.24105 125.52 23.8286 124.671 27.3502C123.822 30.8758 173.598 39.523 254.866 40.4838C257.578 40.5148 260.27 40.5419 262.94 40.5652V40.5768L263.522 40.5729H263.65L264.232 40.5768V40.5652C266.903 40.5419 269.589 40.5187 272.306 40.4838C353.574 39.523 403.35 30.8758 402.501 27.3502C401.652 23.8286 397.988 3.24105 397.988 3.24105L264.232 0.765435V0.742188L263.589 0.753811L262.945 0.742188V0.765435L129.184 3.24105Z" fill="#CBCBCB"/>
<path opacity="0.3" fill-rule="evenodd" clip-rule="evenodd" d="M87.9113 136.751C78.8494 134.644 160.705 161.364 275.602 161.364C347.165 161.364 382.77 207.82 382.821 256.72C382.872 305.62 364.697 474.261 359.047 485.934C353.402 497.606 346.903 507.54 352.975 509.462C359.047 511.383 418.502 504.247 442.467 395.87C466.431 287.493 455.512 141.726 445.724 137.561C435.947 133.392 263.715 165.428 87.9113 136.751Z" fill="#D2D2D1"/>
<path opacity="0.3" fill-rule="evenodd" clip-rule="evenodd" d="M84.4287 60.4183C95.8683 47.6069 104.732 44.7246 109.877 46.003C115.023 47.2815 153.859 56.2537 169.925 56.2537C185.992 56.2537 176.499 83.1589 166.491 96.9349C156.483 110.707 137.882 144.341 137.844 165.161C137.809 185.98 130.481 331.918 137.809 404.878C145.137 477.838 156.172 513.208 146.562 513.041C136.952 512.878 57.7073 511.979 41.6025 422.815C30.8372 363.201 23.5128 253.516 27.8286 179.878C32.0026 108.65 41.6094 108.383 84.4287 60.4183Z" fill="white"/>
<path opacity="0.3" fill-rule="evenodd" clip-rule="evenodd" d="M222.26 14.7262C212.051 15.0478 203.544 13.3547 187.906 13.6414C172.268 13.9281 150.547 10.5653 148.015 12.4869C145.484 14.4085 143.549 28.6385 150.141 31.2264C156.732 33.8144 191.138 40.9972 239.915 40.9972C288.693 40.9972 364.157 39.2344 376.286 35.8716C388.41 32.5088 380.326 32.8497 351.606 34.6009C322.887 36.352 249.919 40.9856 230.771 37.7932C211.623 34.6009 237.368 34.7868 255.662 34.6009C273.955 34.411 300.333 30.2656 293.53 28.8244C286.722 27.3832 196.309 28.8244 186.738 24.6597C177.162 20.491 303.956 17.4498 222.26 14.7262Z" fill="#B2B1B2"/>
<path opacity="0.3" fill-rule="evenodd" clip-rule="evenodd" d="M61.0695 154.573C78.0869 155.856 96.4834 165.045 96.54 188.476C96.5915 211.912 84.6273 305.636 96.54 368.79C108.453 431.947 139.58 483.497 130.04 485.95C120.504 488.398 60.7916 449.699 48.8532 359.635C36.9148 269.575 42.3488 143.261 61.0695 154.573Z" fill="white"/>
<path opacity="0.3" fill-rule="evenodd" clip-rule="evenodd" d="M366.012 73.8001C391.746 90.1105 434.277 120.333 442.474 146.41C454.387 184.304 454.444 313.443 442.5 387.723C430.562 462.003 392.786 501.935 364.005 514.491C335.224 527.047 476.55 519.462 501.317 421.069C526.084 322.679 521.33 161.779 502.259 127.741C483.183 93.698 412.407 43.7285 397.613 43.7285C382.818 43.7285 476.751 109.377 463.135 114.324C456.039 116.901 439.696 103.263 422.483 88.4911C387.496 58.466 360.887 51.7985 348.639 53.0111C327.181 55.1381 361.247 70.7782 366.012 73.8001Z" fill="white"/>
<path fill-rule="evenodd" clip-rule="evenodd" d="M137.248 9.06912C137.248 9.06912 135.374 21.0365 131.932 28.0489C128.489 35.0612 86.0204 59.2827 66.9241 72.6255C47.8227 85.9683 21.3112 109.093 20.035 110.693C18.7588 112.297 49.1709 77.2978 70.8762 61.7622C92.5814 46.2266 118.316 33.2597 119.582 26.9641C120.318 23.303 119.654 11.5951 123.668 8.12769C126.544 5.64045 135.019 7.66279 137.248 9.06912Z" fill="#959696"/>
<path fill-rule="evenodd" clip-rule="evenodd" d="M391.262 9.06912C391.262 9.06912 393.135 21.0365 396.577 28.0489C400.02 35.0612 442.489 59.2827 461.585 72.6255C480.687 85.9683 507.198 109.093 508.474 110.693C509.75 112.297 479.338 77.2978 457.633 61.7622C435.933 46.2266 410.193 33.2597 408.927 26.9641C408.192 23.303 408.855 11.5951 404.842 8.12769C401.96 5.64045 393.485 7.66279 391.262 9.06912Z" fill="#959696"/>
<path fill-rule="evenodd" clip-rule="evenodd" d="M100.53 509.518C100.53 509.518 71.5997 497.346 55.8534 481.33C40.1122 465.314 31.5803 432.166 24.8907 411.664C18.2011 391.161 12.4531 331.716 12.4531 327.737C12.4531 323.762 12.8802 392.018 21.3864 420.954C29.8925 449.891 42.0264 501.038 100.53 509.518Z" fill="#959696"/>
<path fill-rule="evenodd" clip-rule="evenodd" d="M428.23 509.518C428.23 509.518 457.166 497.346 472.907 481.33C488.648 465.314 497.175 432.166 503.87 411.664C510.559 391.161 516.307 331.716 516.307 327.737C516.307 323.762 515.88 392.018 507.374 420.954C498.868 449.891 486.734 501.038 428.23 509.518Z" fill="#959696"/>
<defs>
<filter id="filter0_f_452_35015" x="68.1914" y="509" width="385.676" height="46.8086" filterUnits="userSpaceOnUse" color-interpolation-filters="sRGB">
<feFlood flood-opacity="0" result="BackgroundImageFix"/>
<feBlend mode="normal" in="SourceGraphic" in2="BackgroundImageFix" result="shape"/>
<feGaussianBlur stdDeviation="6.5" result="effect1_foregroundBlur_452_35015"/>
</filter>
<linearGradient id="paint0_linear_452_35015" x1="81.1914" y1="532.404" x2="440.867" y2="532.404" gradientUnits="userSpaceOnUse">
<stop stop-opacity="0"/>
<stop offset="0.546034"/>
<stop offset="1" stop-opacity="0"/>
</linearGradient>

<clipPath id="juiceLevelClip_452_35015" clipPathUnits="userSpaceOnUse">
<path d="M0 100 C70 122 156 147 263 149 C370 151 458 125 528 100 L528 538 L0 538 Z" transform="translate(0 216)"/>
</clipPath>
<clipPath id="clip0_452_35015">
<rect width="526" height="479" fill="white" transform="translate(0 59)"/>
</clipPath>
</defs>
</svg>
