<svg width="54" height="78" viewBox="0 0 54 78" fill="none" xmlns="http://www.w3.org/2000/svg">
<path opacity="0.3" fill-rule="evenodd" clip-rule="evenodd" d="M26.8709 77.1935C1.15324 77.1935 1.93834 74.3096 0.851939 70.218C-0.234278 66.1263 -1.38363 49.0292 4.95267 43.3856C11.289 37.7421 18.5163 36.8694 18.6267 32.9619C18.6823 30.9889 18.4946 10.8846 18.0648 9.37657C17.6348 7.86871 17.0221 7.70115 16.5921 7.11478C16.1621 6.52841 15.485 5.77448 16.3448 5.10425C17.2048 4.43403 21.397 3.84766 26.8707 3.84766C32.3446 3.84766 36.5368 4.43403 37.3967 5.10425C38.2567 5.77448 37.5793 6.52841 37.1495 7.11478C36.7197 7.70115 36.1068 7.86871 35.6768 9.37657C35.2468 10.8846 35.0593 30.9889 35.115 32.9619C35.2253 36.8694 42.4525 37.7421 48.7888 43.3856C55.1251 49.0292 53.9757 66.1263 52.8895 70.218C51.8037 74.3096 52.5886 77.1935 26.8709 77.1935Z" fill="#E4E4E4"/>
<path opacity="0.3" fill-rule="evenodd" clip-rule="evenodd" d="M9.70312 39.9501C14.4313 37.1233 18.5406 35.9009 18.6236 32.9619C18.6792 30.9889 18.4915 10.8846 18.0617 9.37656C17.6317 7.86871 17.019 7.70115 16.589 7.11478C16.159 6.5284 15.4818 5.77448 16.3417 5.10425C17.2017 4.43403 21.3939 3.84766 26.8676 3.84766C32.3415 3.84766 36.5337 4.43403 37.3935 5.10425C38.2535 5.77448 37.5762 6.5284 37.1464 7.11478C36.7166 7.70115 36.1037 7.86871 35.6737 9.37656C35.2437 10.8846 35.0562 30.9889 35.1118 32.9619C35.1901 35.7366 38.8573 36.9814 43.2455 39.4903C40.974 38.8603 35.0298 35.7349 34.5546 34.2543C33.9795 32.4624 34.0407 20.314 34.0643 18.1211C34.1123 13.6828 33.7357 11.7193 33.2019 11.1751C32.6678 10.631 29.8337 10.5669 29.8337 10.5669C29.8337 10.5669 32.3803 10.0548 33.9821 9.60672C35.5839 9.15864 33.5713 8.35842 31.4766 8.55043C29.3819 8.74244 29.1355 8.45435 31.148 8.00627C33.1606 7.5582 34.4338 6.2457 32.5856 6.75798C30.7374 7.27011 24.8229 6.6619 23.2621 6.62987C21.7012 6.59784 25.5834 7.24346 22.7082 7.62749C19.8331 8.01151 22.6049 8.42233 22.8924 8.61434C23.1799 8.80635 19.7169 8.60371 19.5116 9.21192C19.3063 9.82013 25.3157 10.0867 25.3157 10.5029C25.3157 10.9191 21.1263 10.9509 20.0552 11.7238C18.9839 12.4967 19.7931 32.8325 18.832 34.9433C18.0669 36.6237 14.2012 38.304 9.70312 39.9501Z" fill="#BCBDC0"/>
<path fill-rule="evenodd" clip-rule="evenodd" d="M26.8689 77.1952C1.15121 77.1952 1.93631 74.3114 0.849909 70.2197C0.639017 69.4253 0.425896 68.1392 0.265625 66.5432C5.11727 71.335 11.7698 74.5165 20.411 75.3217C32.6569 76.4628 44.2374 75.0104 47.8313 73.4545C51.4253 71.8985 51.6914 63.8072 51.6914 63.8072L53.7353 61.6914C53.6914 65.4775 53.2857 68.7213 52.8879 70.2199C51.8016 74.3114 52.5865 77.1952 26.8689 77.1952Z" fill="#BCBDC0"/>
<path fill-rule="evenodd" clip-rule="evenodd" d="M1.96094 70.3438C2.01586 70.9428 1.82046 72.7344 3.04192 73.8796C4.56767 75.3099 7.83288 76.0775 11.124 76.2378C17.0503 76.5263 21.989 76.7189 28.5326 76.8151C35.0763 76.9113 35.1998 76.7189 36.9284 76.5264C38.6568 76.334 27.2981 76.334 22.3594 76.2378C17.4207 76.1415 13.3463 75.3717 15.1984 75.1793C17.0503 74.9868 15.5927 73.6381 14.2346 72.9645C12.8764 72.2909 10.779 72.8484 9.42082 72.271C8.06281 71.6938 7.71536 71.9812 5.73981 71.5963C3.76445 71.2114 3.31894 71.306 1.96094 70.3438Z" fill="#BCBDC0"/>
<path fill-rule="evenodd" clip-rule="evenodd" d="M4.21094 71.1378C9.2731 72.2925 17.9158 72.9659 25.3237 72.9659C32.7317 72.9659 48.2884 72.4848 50.3872 71.234C52.6717 69.8726 53.6547 75.0596 42.4854 76.0451C35.9417 76.6225 46.8067 75.1791 47.1771 74.6018C47.5475 74.0244 47.0537 74.1208 43.7201 74.698C40.3865 75.2752 45.8189 73.7357 39.1518 74.2169C32.4847 74.698 21.6197 73.9282 14.0883 73.1584C6.55673 72.3886 4.21094 71.1378 4.21094 71.1378Z" fill="#939598"/>
<path fill-rule="evenodd" clip-rule="evenodd" d="M8.76149 41.3633C5.19425 43.0482 2.27577 47.0075 1.19478 54.3367C0.113794 61.6658 0.654378 67.8156 1.4109 68.8264C2.16761 69.8373 5.30242 70.5113 7.35624 70.9325C9.41006 71.3536 4.65385 69.5846 4.65385 68.8264C4.65385 68.0683 14.7068 67.2257 19.0308 66.9731C23.3547 66.7204 10.7073 66.4677 5.73484 67.3101C0.762523 68.1524 0.654369 46.3336 8.76149 41.3633Z" fill="#BCBDC0"/>
<path fill-rule="evenodd" clip-rule="evenodd" d="M3.95574 70.7152C6.59778 71.4719 9.95788 71.8242 14.5237 72.2053C24.4056 73.0302 39.4047 72.3428 43.6398 71.9303C47.8748 71.5177 46.8865 73.0991 35.9458 73.6491C27.6734 74.065 11.7894 73.6852 3.20521 71.3321C1.66003 70.9086 1.4596 69.8988 1.62716 69.7369C1.82236 69.548 3.66434 70.6318 3.95574 70.7152Z" fill="white"/>
<path fill-rule="evenodd" clip-rule="evenodd" d="M18.6226 5.06641C17.2616 5.67243 17.2616 6.65724 22.3165 7.11172C27.3712 7.56621 35.0506 7.03602 35.9253 6.20261C36.8001 5.36935 32.6203 6.96018 27.5655 6.65724C22.511 6.35415 20.2752 6.27846 18.6226 5.06641Z" fill="white"/>
<path fill-rule="evenodd" clip-rule="evenodd" d="M23.4518 7.73525C22.3744 8.29499 19.7408 7.64194 21.5364 8.1085C23.3321 8.57492 30.0362 8.48161 30.0362 8.48161C30.0362 8.48161 29.4375 8.85486 26.3249 8.85486C23.2123 8.85486 19.8603 8.57493 20.5787 9.32128C21.2969 10.0676 27.3088 10.452 25.1279 10.4981C22.9471 10.5443 19.1423 10.161 18.6633 9.13466C18.1844 8.10836 21.8956 7.92188 19.5013 7.64194C17.1069 7.36215 15.4566 6.59293 16.5946 5.3094C17.0416 4.80528 18.5682 4.64442 18.722 4.80717C18.9353 5.03296 16.6582 4.93892 17.556 6.12622C18.9131 7.92115 24.5704 7.15427 23.4518 7.73525Z" fill="#939598"/>
<path fill-rule="evenodd" clip-rule="evenodd" d="M35.9021 5.27734C36.7657 6.08484 36.852 6.82509 32.7936 7.22877C28.7353 7.63259 30.5485 8.5072 32.7936 8.23803C35.0387 7.96916 39.0971 6.42127 35.9021 5.27734Z" fill="#939598"/>
<path fill-rule="evenodd" clip-rule="evenodd" d="M27.2031 10.4843C31.115 10.5306 33.6044 10.2535 34.4934 9.8377C35.3823 9.42194 34.5291 15.1864 34.4934 18.9834C34.4577 22.7804 34.4523 30.7813 34.0957 31.7504C33.7389 32.7195 33.6795 27.473 33.6072 22.9034C33.5347 18.3338 34.3053 12.4062 33.8708 11.3344C33.4365 10.2623 31.7792 11.1589 27.2031 10.4843Z" fill="#939598"/>
<path fill-rule="evenodd" clip-rule="evenodd" d="M19.0931 31.8423C19.0234 28.3096 18.8839 11.7337 18.8142 10.3206C18.7445 8.9075 19.7906 10.4836 19.8602 11.2988C19.9299 12.1141 19.7209 31.7335 19.3721 33.1466C19.0234 34.5597 19.3722 35.1574 17.7681 36.2987C16.1641 37.44 17.9773 36.027 18.3958 35.1574C18.8142 34.2879 19.0931 31.8423 19.0931 31.8423Z" fill="#939598"/>
<path fill-rule="evenodd" clip-rule="evenodd" d="M24.6016 7.61195C25.457 7.82522 24.5333 8.25189 22.8568 8.17197C21.1803 8.09191 23.541 8.09205 23.6779 7.82536C23.8148 7.55867 24.0199 7.10535 24.6016 7.61195Z" fill="white"/>
<path fill-rule="evenodd" clip-rule="evenodd" d="M22.6842 8.99706C20.8366 9.05034 21.3499 9.26376 22.6158 9.5303C23.8818 9.797 25.2846 9.9302 25.3871 9.55694C25.4897 9.18369 23.8474 8.83708 22.6842 8.99706Z" fill="white"/>
<path fill-rule="evenodd" clip-rule="evenodd" d="M21.3037 12.4679C21.4053 11.36 25.0609 11.1365 25.467 11.928C25.8733 12.7193 25.458 32.1644 25.0517 34.5386C24.6456 36.9127 22.3258 39.6226 19.381 40.8887C16.4361 42.1549 18.2572 38.5042 20.3897 36.0508C22.5221 33.5976 20.0852 13.3385 21.3037 12.4679Z" fill="white"/>
<path opacity="0.2" fill-rule="evenodd" clip-rule="evenodd" d="M15.6339 43.3672C17.0581 43.6698 15.7634 45.6879 14.5982 50.1277C13.4329 54.5674 13.6918 69.4001 13.8213 70.4092C13.9507 71.4183 8.77183 70.9138 8.51274 69.0974C8.25384 67.2812 8.25383 44.3763 15.6339 43.3672Z" fill="white"/>
<path fill-rule="evenodd" clip-rule="evenodd" d="M8.54803 70.3047C8.14754 71.5531 11.5515 71.7872 13.6539 71.6312C15.7565 71.4752 8.94852 71.163 8.54803 70.3047Z" fill="white"/>
<path fill-rule="evenodd" clip-rule="evenodd" d="M8.84571 72.999C11.8145 73.3979 12.7357 72.999 13.0428 73.5574C13.3499 74.1158 14.4761 74.0361 14.8856 74.5945C15.295 75.1529 13.7596 74.9136 13.5548 75.472C13.3501 76.0306 13.1717 76.3498 10.4077 75.871C7.64367 75.3924 8.14447 75.1369 7.85288 74.5226C7.56092 73.9084 5.94347 72.229 8.84571 72.999Z" fill="white"/>
<path fill-rule="evenodd" clip-rule="evenodd" d="M45.781 42.6094C48.8522 44.4443 50.5109 52.3333 50.7156 55.8435C50.9204 59.3538 52.1487 66.2947 48.7705 66.5341C45.3923 66.7734 37.9192 66.4543 34.7457 66.7734C31.5722 67.0925 41.6045 67.252 44.6756 67.5711C47.7467 67.8902 50.306 69.3263 49.5894 69.8847C48.8729 70.4432 50.9203 69.8847 51.944 68.369C52.9678 66.8533 54.1755 45.8804 45.781 42.6094Z" fill="#BCBDC0"/>
<path fill-rule="evenodd" clip-rule="evenodd" d="M24.5078 67.4453C31.4381 67.5578 42.2665 67.4453 44.2878 68.7955C46.3091 70.1457 44.4322 71.0458 35.3364 71.3834C26.2405 71.721 36.6357 70.8209 37.3577 70.0332C38.0795 69.2456 24.5078 67.4453 24.5078 67.4453Z" fill="#BCBDC0"/>
<path fill-rule="evenodd" clip-rule="evenodd" d="M2.72689 71.9842C2.80572 73.3648 4.41982 74.316 5.7584 74.7456C7.09716 75.1751 5.99469 73.7331 6.11274 73.0888C6.2308 72.4443 2.68748 71.3397 2.72689 71.9842Z" fill="white"/>
<path fill-rule="evenodd" clip-rule="evenodd" d="M17.1023 74.049C17.2135 74.9156 14.8784 75.4356 25.3311 75.7822C35.7838 76.1288 39.6759 75.5222 40.6767 74.9156C41.6776 74.309 33.8936 75.3488 29.5568 75.0022C25.2197 74.6556 16.991 73.529 17.1023 74.049Z" fill="white"/>
<path fill-rule="evenodd" clip-rule="evenodd" d="M32.5351 12.4336C32.4105 18.4532 31.7875 32.7255 32.6597 34.0847C33.5318 35.4441 32.7843 36.3178 36.7709 38.0654C40.7576 39.813 44.1373 41.0504 45.8813 42.2155C46.7939 42.8251 46.6811 42.4495 45.2495 41.4305C43.9457 40.5025 41.2712 39.4446 37.7674 37.8712C30.417 34.5702 33.407 24.6669 33.2825 19.5212C33.1579 14.3754 32.5351 12.4336 32.5351 12.4336Z" fill="white"/>
<path fill-rule="evenodd" clip-rule="evenodd" d="M13.2912 45.9819C10.4216 48.9244 9.81506 59.7135 10.268 63.1266C10.4235 64.2973 11.244 63.1013 11.5252 61.251C12.0637 57.7076 12.1379 52.7667 13.7253 49.6739C16.1413 44.9662 14.1973 45.0403 13.2912 45.9819Z" fill="white"/>
</svg>
