<svg width="43" height="75" viewBox="0 0 43 75" fill="none" xmlns="http://www.w3.org/2000/svg">
<path opacity="0.3" fill-rule="evenodd" clip-rule="evenodd" d="M13.6899 5.30542C13.3219 3.85851 12.7977 3.69773 12.4297 3.13506C12.0617 2.57239 11.4823 1.84893 12.2182 1.2058C12.9541 0.562671 16.5415 0 21.2257 0C25.9098 0 29.4973 0.562671 30.2331 1.2058C30.969 1.84893 30.3894 2.57239 30.0216 3.13506C29.6536 3.69773 29.1293 3.85851 28.7614 5.30542C28.2377 7.365 28.5505 11.181 28.5505 13.529C28.5505 17.1825 31.1714 13.7191 32.8004 18.796C35.9841 28.7178 42.6213 66.3638 42.4298 68.2051C42.2096 70.3227 40.0065 72.8256 35.8208 73.7882C31.635 74.7508 22.3823 74.7508 21.2208 74.7508C20.0596 74.7508 10.8067 74.7508 6.62095 73.7882C2.43517 72.8256 0.23214 70.3227 0.011869 68.2051C-0.179629 66.3638 6.45743 28.7178 9.64129 18.796C11.2703 13.7192 13.891 17.1825 13.891 13.529C13.8909 11.171 14.2177 7.38162 13.6899 5.30542Z" fill="#E4E4E4"/>
<path fill-rule="evenodd" clip-rule="evenodd" d="M40.3406 54.6172C41.6241 61.9112 42.4931 67.523 42.422 68.2061C42.2017 70.3238 39.9987 72.8266 35.8129 73.7892C31.6271 74.7518 22.3745 74.7518 21.213 74.7518C20.0517 74.7518 10.7989 74.7518 6.61313 73.7892C2.42734 72.8266 0.22431 70.3238 0.00403951 68.2061C-0.0223355 67.9525 0.0814054 67.0169 0.28713 65.5712C1.23791 69.4796 3.79468 72.3969 9.43541 73.408C20.2854 75.3529 32.3874 74.0158 36.2822 72.8002C40.1771 71.5846 40.3162 71.3414 40.4554 67.8162C40.5169 66.2594 40.4426 60.5301 40.3406 54.6172Z" fill="#BCBDC0"/>
<path fill-rule="evenodd" clip-rule="evenodd" d="M5.85487 37.418C4.8336 40.6635 0.572686 65.102 0.665558 67.455C0.758429 69.8081 4.65808 70.7817 11.5288 71.1874C18.3996 71.5931 19.5139 71.7554 17.6568 71.1062C15.7998 70.4571 4.65793 70.0514 4.37947 68.7532C4.10102 67.4549 10.6932 66.9681 12.8287 66.7246C14.9643 66.4813 8.74348 66.3189 5.58648 66.9681C2.42964 67.6171 2.15103 66.8058 2.7081 62.7487C3.26533 58.692 5.85487 37.418 5.85487 37.418Z" fill="#BCBDC0"/>
<path opacity="0.3" fill-rule="evenodd" clip-rule="evenodd" d="M13.6792 5.30542C13.3113 3.85851 12.787 3.69773 12.419 3.13506C12.051 2.57239 11.4716 1.84893 12.2075 1.2058C12.9435 0.562671 16.5308 0 21.215 0C25.8992 0 29.4866 0.562671 30.2224 1.2058C30.9583 1.84893 30.3787 2.57239 30.0109 3.13506C29.643 3.69773 29.1186 3.85851 28.7507 5.30542C28.227 7.365 28.5398 11.181 28.5398 13.529C28.5398 17.1825 31.1607 13.7191 32.7897 18.796C33.8594 22.1299 35.3193 28.5955 36.7789 35.78C34.5986 28.4318 31.7096 18.8052 31.2333 17.7643C30.4524 16.0585 28.5002 16.1949 28.0317 15.3759C27.5632 14.5571 28.0317 11.1451 27.407 8.6887C26.7823 6.23226 23.3465 6.3686 25.6109 5.82269C27.8754 5.27678 27.7192 4.73087 26.4698 4.38975C25.2204 4.04863 16.8653 4.32144 16.0846 4.6627C15.3038 5.00383 16.3188 5.41326 17.4902 5.75452C18.6614 6.09564 17.5683 6.64155 16.2408 7.32393C14.9134 8.00632 15.1476 12.1006 15.1476 14.2159C15.1476 16.3313 12.4147 16.3996 11.0091 17.082C9.60358 17.7643 9.83775 21.3127 8.3542 26.7717C7.59604 29.5617 6.69482 32.7082 5.64062 35.7831C7.10036 28.5974 8.56041 22.1305 9.63043 18.796C11.2594 13.7192 13.8802 17.1825 13.8802 13.529C13.8802 11.171 14.207 7.38163 13.6792 5.30542Z" fill="#BCBDC0"/>
<path fill-rule="evenodd" clip-rule="evenodd" d="M14.1675 1.16797C13.003 1.7495 13.003 2.6945 17.3285 3.13061C21.654 3.56672 28.2254 3.05797 28.9741 2.25825C29.7227 1.45866 26.1459 2.98519 21.8204 2.69436C17.4948 2.40366 15.5815 2.33103 14.1675 1.16797Z" fill="white"/>
<path fill-rule="evenodd" clip-rule="evenodd" d="M18.2925 3.73161C17.3705 4.26872 15.1168 3.64207 16.6535 4.08978C18.1901 4.53734 23.927 4.4478 23.927 4.4478C23.927 4.4478 23.4149 4.80597 20.7512 4.80597C18.0875 4.80597 15.2191 4.53734 15.8337 5.25353C16.4484 5.96972 21.5929 6.3385 19.7267 6.38278C17.8605 6.42707 14.6045 6.05926 14.1947 5.07445C13.7848 4.08964 16.9607 3.9107 14.9117 3.64207C12.8628 3.37345 11.4504 2.63547 12.4243 1.40382C12.8069 0.920076 14.1133 0.765719 14.2449 0.921892C14.4274 1.13855 12.4788 1.04831 13.2471 2.18762C14.4084 3.91 19.2496 3.17411 18.2925 3.73161Z" fill="#939598"/>
<path fill-rule="evenodd" clip-rule="evenodd" d="M28.9574 1.37109C29.6964 2.14595 29.7702 2.85628 26.2973 3.24363C22.8246 3.63113 24.3761 4.47039 26.2973 4.2121C28.2186 3.9541 31.6914 2.46878 28.9574 1.37109Z" fill="#939598"/>
<path fill-rule="evenodd" clip-rule="evenodd" d="M21.5 6.37117C24.8475 6.41559 26.9777 6.14949 27.7386 5.75067C28.7407 5.2253 27.6753 13.4411 28.4342 15.32C28.9301 16.5476 30.514 15.5134 31.5882 17.3912C32.6625 19.2687 36.1333 35.7233 36.1333 35.7233C36.1333 35.7233 34.1999 29.5545 32.4776 22.7121C31.1801 17.5575 31.1123 17.5403 30.1085 17.0893C29.6033 16.8624 28.3385 16.5363 27.9489 15.8741C26.4291 13.2908 28.0095 9.41068 27.2059 7.18682C26.834 6.15815 25.4158 7.0185 21.5 6.37117Z" fill="#939598"/>
<path fill-rule="evenodd" clip-rule="evenodd" d="M14.3232 6.21172C14.2636 4.85575 15.1588 6.36831 15.2184 7.15043C15.4694 10.4422 15.3533 14.1901 14.1928 15.6708C13.6858 16.3179 13.8672 15.7817 12.1247 16.6816C10.3146 17.6163 10.5612 19.9895 8.91541 26.3174C7.26961 32.6454 6.18904 35.6016 6.06564 35.7455C5.94223 35.8894 9.4915 17.9758 10.9727 16.8253C12.4538 15.6749 13.4412 15.9625 13.935 15.3872C14.7417 14.4471 14.3947 7.83701 14.3232 6.21172Z" fill="#939598"/>
<path fill-rule="evenodd" clip-rule="evenodd" d="M19.2791 3.6105C20.0111 3.81514 19.2206 4.22458 17.786 4.14789C16.3514 4.07106 18.3715 4.0712 18.4887 3.81528C18.6057 3.55937 18.7814 3.12438 19.2791 3.6105Z" fill="white"/>
<path fill-rule="evenodd" clip-rule="evenodd" d="M17.6428 4.94076C16.0617 4.99189 16.501 5.19667 17.5843 5.45244C18.6676 5.70835 19.8681 5.83617 19.9558 5.478C20.0436 5.11984 18.6382 4.78724 17.6428 4.94076Z" fill="white"/>
<path fill-rule="evenodd" clip-rule="evenodd" d="M26.0705 8.24036C26.043 9.7356 25.9867 13.3339 25.9316 15.538H26.6787C26.5254 11.4027 26.0705 8.24036 26.0705 8.24036ZM16.4574 8.27235C16.5443 7.20917 19.7835 7.23739 20.0201 7.75424C20.2566 8.27109 20.1794 12.4953 20.1551 15.824H16.1962C16.1098 12.744 16.1105 8.55019 16.4574 8.27235Z" fill="white"/>
<path fill-rule="evenodd" clip-rule="evenodd" d="M2.98607 70.2668C4.3152 71.138 10.8285 72.1834 18.8703 72.3576C26.9123 72.5318 36.2834 71.5445 38.543 70.6153C40.8028 69.6859 35.6188 70.8476 32.495 71.1961C29.3713 71.5445 17.5551 71.8809 12.4158 71.6395C7.27654 71.3983 1.59683 69.524 2.98607 70.2668Z" fill="white"/>
<path fill-rule="evenodd" clip-rule="evenodd" d="M3.63018 72.1895C5.48106 73.2111 9.04919 74.1173 17.6457 74.3905C28.1558 74.7245 35.6724 73.4442 37.7746 72.6649C39.8766 71.8856 41.5327 70.2156 41.3417 69.6589C41.1505 69.1022 40.1315 70.7722 37.0739 71.3289C34.0164 71.8856 35.9274 71.9412 37.5199 71.6072C39.1123 71.2732 38.4117 71.9412 35.8637 72.4421C33.3157 72.943 25.863 73.945 19.939 73.945C14.015 73.945 6.24385 72.9988 5.73425 72.275C5.22466 71.5514 5.60685 72.108 8.40963 72.609C11.2124 73.1101 9.04663 72.4421 5.86165 71.4957C2.67684 70.5493 2.03969 70.2154 1.27529 69.937C0.435451 69.6314 1.8963 71.2327 3.63018 72.1895Z" fill="#939598"/>
<path fill-rule="evenodd" clip-rule="evenodd" d="M11.9875 72.1916C15.2876 72.5337 17.8607 72.6804 21.7201 72.6315C25.5794 72.5826 23.5099 72.8271 19.7065 72.9249C15.903 73.0227 12.3792 72.6317 10.3656 72.1427C8.3518 71.654 11.9875 72.1916 11.9875 72.1916Z" fill="#BCBDC0"/>
<path fill-rule="evenodd" clip-rule="evenodd" d="M11.7743 72.9745C15.2422 73.4144 19.1575 73.7567 26.4288 73.219C33.7003 72.6813 33.3645 71.8014 31.6866 72.0459C30.0086 72.2902 26.261 72.388 26.1491 72.5836C26.0372 72.7791 28.1627 72.9257 25.3101 72.9745C22.4574 73.0234 19.5488 73.3655 15.8573 73.1212C12.1659 72.8768 9.08945 72.5347 11.7743 72.9745Z" fill="white"/>
<path fill-rule="evenodd" clip-rule="evenodd" d="M11.9762 19.2267C13.3126 16.5261 19.0075 18.0835 24.0764 18.0835C29.1454 18.0835 28.3279 20.2269 23.7494 21.2272C19.1708 22.2275 10.6831 21.8399 11.9762 19.2267Z" fill="white"/>
<path fill-rule="evenodd" clip-rule="evenodd" d="M8.79814 40.9968C7.96917 47.817 5.53645 66.3003 7.24059 68.0604C9.0392 69.918 11.165 70.204 11.9826 63.3449C12.8003 56.4859 14.7057 40.5955 12.907 40.1666C10.7248 39.6466 9.01218 39.2354 8.79814 40.9968Z" fill="white"/>
<path fill-rule="evenodd" clip-rule="evenodd" d="M16.1016 67.3039C22.129 67.2372 29.2246 67.1706 32.6578 67.7706C36.0912 68.3707 36.5489 69.3707 33.6497 70.0374C30.7505 70.7042 21.7476 70.7708 20.069 70.7708C18.3904 70.7708 23.6549 69.704 26.7067 69.3041C29.7585 68.904 16.3305 67.3705 16.1016 67.3039Z" fill="#BCBDC0"/>
<path fill-rule="evenodd" clip-rule="evenodd" d="M14.4934 68.237C12.5859 68.7703 15.4853 69.1704 18.5371 69.1036C21.5889 69.0371 18.9185 67.9037 14.4934 68.237Z" fill="#BCBDC0"/>
<path fill-rule="evenodd" clip-rule="evenodd" d="M12.4571 23.5717C10.8952 27.4562 10.3477 35.1294 10.708 36.1794C11.0685 37.2293 12.775 37.6122 13.1355 36.4572C13.4959 35.3022 15.3402 25.8814 16.3014 24.4116C17.2626 22.9418 12.4571 23.5717 12.4571 23.5717Z" fill="white"/>
<path fill-rule="evenodd" clip-rule="evenodd" d="M30.0312 18.5781C31.1945 18.917 34.5874 34.1657 34.6843 36.1141C34.7815 38.0625 30.0312 18.5781 30.0312 18.5781Z" fill="white"/>
</svg>
