<svg width="490" height="590" viewBox="0 0 490 590" fill="none" xmlns="http://www.w3.org/2000/svg">
<path opacity="0.5" fill-rule="evenodd" clip-rule="evenodd" d="M118.721 14.4149C118.721 20.2563 114.832 78.7348 102.103 90.5074C89.38 102.274 109.913 103.234 185.75 104.31C261.592 105.38 389.2 109.486 396.746 95.5738C404.286 81.662 385.026 83.0583 378.363 46.9464C371.7 10.8345 369.261 0.496663 369.261 0.496663C369.261 0.496663 123.899 -4.05743 118.721 14.4149Z" fill="#CBCBCB"/>
<path opacity="0.39" fill-rule="evenodd" clip-rule="evenodd" d="M121.339 22.7009C116.593 54.3549 120.878 79.0465 98.4587 100.625C80.6644 117.752 13.0625 138.62 13.0625 207.654C13.0625 276.688 33.8741 468.175 42.6521 477.36C51.4301 486.545 121.253 544.133 143.373 549.071C183.87 558.115 218.678 561.517 249.297 561.504C278.668 561.485 309.814 561.856 346.833 549.071C368.496 541.59 438.771 486.545 447.549 477.36C456.327 468.175 477.138 276.682 477.138 207.654C477.138 138.62 409.536 117.752 391.742 100.625C369.323 79.0465 373.608 54.3613 368.861 22.7009L263.328 13.5352L263.267 10.3711L245.098 11.9468L226.923 10.3711L226.862 13.5352L121.339 22.7009Z" fill="#CBCBCB"/>
<path opacity="0.5" fill-rule="evenodd" clip-rule="evenodd" d="M104.712 81.707C104.712 81.707 82.7999 94.1393 68.3931 106.443C53.9863 118.754 15.4819 156.179 12.9159 163.173C-9.5386 224.393 463.102 245.581 476.398 170.879C479.522 153.329 464.132 146.123 454.273 135.868C435.754 116.596 408.938 101.819 385.029 86.6581C385.029 86.6581 215.321 112.65 104.712 81.707Z" fill="#F0EFEE"/>
<path opacity="0.5" fill-rule="evenodd" clip-rule="evenodd" d="M250.807 499.496C325.179 499.496 385.473 515.035 385.473 534.199C385.473 553.363 325.184 568.902 250.807 568.902C176.435 568.902 116.141 553.363 116.141 534.199C116.141 515.041 176.435 499.496 250.807 499.496Z" fill="#B2B1B2"/>
<path opacity="0.64" fill-rule="evenodd" clip-rule="evenodd" d="M447.562 477.346C438.784 486.531 368.906 543.748 346.847 549.057C306.75 558.703 272.323 558.262 242.951 558.281C212.332 558.3 183.879 558.108 143.382 549.057C121.267 544.119 51.4437 486.531 42.6606 477.346C33.8827 468.161 13.071 276.668 13.071 207.64C13.071 138.606 80.673 117.738 98.4673 100.611C120.886 79.0324 116.601 54.3472 121.348 22.6868L226.881 13.5212L226.942 10.357L245.117 11.9327L263.286 10.357L263.347 13.5212L368.88 22.6868C373.627 54.3408 369.342 79.0324 391.761 100.611C409.555 117.738 477.157 138.606 477.157 207.64C477.152 276.668 456.34 468.161 447.562 477.346ZM381.598 11.5291C257.16 2.56841 231.942 2.56841 107.509 11.5291C107.818 64.89 108.929 61.0213 72.2247 92.4255C57.2347 105.242 -5.84899 130.587 0.439097 202.01C6.72718 273.446 29.4354 473.695 29.4354 473.695C29.4354 473.695 34.7549 496.894 51.185 510.326C67.6203 523.757 115.957 570.156 129.492 573.819C208.068 595.104 281.05 595.104 359.626 573.819C373.16 570.156 421.497 523.757 437.927 510.326C454.363 496.894 459.677 473.695 459.677 473.695C459.677 473.695 482.39 273.446 488.673 202.01C494.961 130.581 431.873 105.242 416.888 92.4255C380.179 61.0213 381.289 64.89 381.598 11.5291Z" fill="#B2B1B2"/>
<path fill-rule="evenodd" clip-rule="evenodd" d="M106.32 10.832C106.32 10.832 143.821 23.0529 176.65 23.8535C209.485 24.6606 350.572 27.4404 362.646 23.8535C374.72 20.2667 381.627 10.832 381.627 10.832H106.32Z" fill="#B2B1B2"/>
<path fill-rule="evenodd" clip-rule="evenodd" d="M377.947 29.75C377.947 29.75 377.526 62.1277 389.813 74.4319C424.19 108.866 484.692 128.843 485.996 195.911C486.558 224.894 467.359 387.225 467.359 387.225C467.359 387.225 482.826 216.523 479.013 192.433C467.664 120.754 397.907 115.828 383.262 83.2645C377.967 71.492 377.947 29.75 377.947 29.75Z" fill="#959696"/>
<path fill-rule="evenodd" clip-rule="evenodd" d="M111.837 29.75C111.837 29.75 112.263 62.1277 99.9758 74.4319C65.5992 108.866 5.09157 128.843 3.79339 195.911C3.2305 224.894 22.4294 387.225 22.4294 387.225C22.4294 387.225 6.95775 216.523 10.7712 192.433C22.1201 120.754 91.8773 115.828 106.522 83.2645C111.817 71.492 111.837 29.75 111.837 29.75Z" fill="#959696"/>
<path fill-rule="evenodd" clip-rule="evenodd" d="M44.2188 478.879C44.2188 478.879 93.3824 520.147 116.826 535.301C124.255 540.105 130.355 545.543 137.069 548.259C151.537 554.113 165.802 554.164 180.782 556.111C202.714 558.962 249.307 561.485 249.307 561.485C142.901 548.784 137.977 539.055 44.2188 478.879Z" fill="#7E7E7D"/>
<path fill-rule="evenodd" clip-rule="evenodd" d="M447.614 478.879C447.614 478.879 398.455 520.147 375.012 535.301C367.583 540.105 361.482 545.543 354.768 548.259C340.301 554.113 326.036 554.164 311.056 556.111C289.124 558.962 242.531 561.485 242.531 561.485C348.927 548.784 353.851 539.055 447.614 478.879Z" fill="#7E7E7D"/>
<path fill-rule="evenodd" clip-rule="evenodd" d="M140.914 568.667C142.395 565.189 147.116 559.303 154.261 559.303C161.401 559.303 226.285 569.205 247.046 568.398C267.807 567.598 331.575 561.442 341.742 557.426C351.91 553.417 358.903 554.749 361.656 557.964C364.41 561.18 363.984 567.598 362.503 568.667C361.017 569.743 234.338 606.662 140.914 568.667Z" fill="#959696"/>
<path fill-rule="evenodd" clip-rule="evenodd" d="M56.1995 492.675C61.7067 498.298 117.635 540.342 122.296 547.413C126.956 554.484 123.142 558.769 116.149 554.221C109.156 549.674 55.5606 507.932 47.7259 498.568C39.8861 489.203 33.1112 477.431 31.8384 469.136C30.5655 460.841 26.5391 427.926 26.5391 427.926C26.5391 427.926 33.8465 471.544 39.7796 477.962C45.7128 484.38 56.1995 492.675 56.1995 492.675Z" fill="#B2B1B2"/>
<path fill-rule="evenodd" clip-rule="evenodd" d="M432.692 492.675C427.185 498.298 371.257 540.342 366.596 547.413C361.936 554.484 365.75 558.769 372.743 554.221C379.736 549.674 433.331 507.932 441.166 498.568C449.006 489.203 455.781 477.431 457.054 469.136C458.327 460.841 462.348 427.926 462.348 427.926C462.348 427.926 455.04 471.544 449.107 477.962C443.179 484.38 432.692 492.675 432.692 492.675Z" fill="#B2B1B2"/>
<path fill-rule="evenodd" clip-rule="evenodd" d="M141.375 518.701C141.375 518.701 193.911 503.29 257.436 505.583C320.961 507.876 366.793 516.721 366.793 516.721C366.793 516.721 242.05 478.137 141.375 518.701Z" fill="#B2B1B2"/>
<path opacity="0.28" fill-rule="evenodd" clip-rule="evenodd" d="M217.296 27.5232C213.057 30.4695 209.036 42.5111 209.036 53.7456C209.036 64.9801 214.543 81.8448 233.823 84.2467C253.103 86.655 315.172 83.177 315.172 86.655C315.172 99.2602 124.263 98.2674 118.791 80.4997C117.306 75.6831 124.086 76.7527 123.665 62.8408C123.244 48.929 126.575 22.239 129.963 21.9443C133.35 21.6497 180.435 31.0011 217.296 27.5232Z" fill="#B2B1B2"/>
<path opacity="0.5" fill-rule="evenodd" clip-rule="evenodd" d="M341.223 30.7216C343.343 35.8072 344.611 58.0136 337.836 67.1152C331.056 76.2169 252.673 74.0712 260.513 76.2169C268.353 78.3562 312.836 75.6788 317.075 81.3025C321.314 86.9198 324.032 93.6131 307.384 94.5931C290.731 95.5666 206.496 91.1087 210.096 95.5667C212.099 98.0455 263.114 98.3081 308.495 95.5667C344.793 93.3697 380.296 87.9638 381.188 87.2016C383.196 85.4851 377.806 84.0375 375.285 66.289C372.765 48.5469 371.305 16.5407 371.305 16.5407C371.305 16.5407 327.668 12.5247 341.223 30.7216Z" fill="#B2B1B2"/>
<path opacity="0.38" fill-rule="evenodd" clip-rule="evenodd" d="M131.748 95.5664C131.748 95.5664 165.638 103.957 191.171 104.386C216.703 104.815 242.946 111.137 246.77 117.562C250.588 123.986 242.53 150.208 227.282 162.513C212.028 174.817 178.554 197.299 174.32 231.015C170.085 264.731 176.82 377.897 177.712 408.148C180.471 501.54 185.927 505.749 214.574 544.608C214.574 544.608 180.511 542.757 144.598 528.532C105.283 512.961 63.5684 484.144 57.8127 465.409C46.7985 429.554 30.5711 224.802 36.6259 197.843C42.6706 170.871 72.4984 123.986 131.748 95.5664Z" fill="white"/>
<path opacity="0.5" fill-rule="evenodd" clip-rule="evenodd" d="M201.644 79.0564C203.55 72.3631 199.737 35.4377 203.971 33.5674C208.211 31.6971 224.098 27.7452 224.098 42.9317C224.098 58.1182 224.945 79.0564 221.978 84.6737C219.012 90.2909 197.191 90.291 201.644 79.0564Z" fill="white"/>
<path fill-rule="evenodd" clip-rule="evenodd" d="M117.514 127.203C102.134 133.025 68.366 170.014 77.6865 182.325C87.0071 194.636 146.353 203.731 161.379 194.636C176.404 185.54 202.252 166.344 205.639 149.685C209.032 133.019 173.017 119.709 117.514 127.203Z" fill="white"/>
<path fill-rule="evenodd" clip-rule="evenodd" d="M98.0341 224.079C96.7613 235.851 121.335 252.261 139.556 246.196C157.776 240.13 164.13 229.427 155.235 222.471C146.336 215.515 89.9863 208.348 98.0341 224.079Z" fill="white"/>
<path opacity="0.5" fill-rule="evenodd" clip-rule="evenodd" d="M185.225 79.4327C186.067 73.5977 184.383 41.3865 186.254 39.7532C188.125 38.1199 195.144 34.674 195.144 47.9197C195.144 61.1718 195.519 79.4327 194.206 84.3326C192.897 89.2325 183.257 89.2325 185.225 79.4327Z" fill="white"/>
<path fill-rule="evenodd" clip-rule="evenodd" d="M109.933 266.083C118.406 273.039 145.531 268.581 146.586 283.652C147.641 298.73 140.019 388.401 146.586 434.268C153.153 480.135 163.741 513.32 171.368 523.485C178.995 533.65 139.593 525.086 126.033 485.49C112.478 445.893 90.8657 256.988 109.933 266.083Z" fill="white"/>
<path opacity="0.56" fill-rule="evenodd" clip-rule="evenodd" d="M234.054 228.084C234.054 228.084 317.939 231.831 351.413 225.945C384.887 220.059 457.342 202.208 462.418 208.728C467.494 215.249 431.91 240.927 351.413 253.237C270.91 265.548 139.996 225.407 234.054 228.084Z" fill="#CBCBCD"/>
<path opacity="0.31" fill-rule="evenodd" clip-rule="evenodd" d="M348.45 133.405C356.924 145.657 389.551 176.158 390.818 216.831C392.086 257.503 384.038 423.933 378.957 448.016C373.871 472.1 342.943 516.512 321.761 526.146C300.579 535.779 280.234 547.411 280.234 547.411C280.234 547.411 349.287 536.317 384.246 509.557C419.206 482.802 450.134 468.353 449.287 427.149C448.441 385.938 470.479 239.851 467.513 215.236C464.546 190.621 456.919 169.696 437.857 151.557C400.626 116.13 378.166 119.147 364.982 52.553C359.064 22.6476 305.615 71.4673 348.45 133.405Z" fill="white"/>
<path opacity="0.5" fill-rule="evenodd" clip-rule="evenodd" d="M280.152 246.188C280.152 246.188 298.453 247.738 295.066 303.546C291.678 359.347 281.506 516.534 274.305 527.769C267.104 539.01 271.764 542.75 271.764 542.75C271.764 542.75 358.621 505.825 364.975 452.848C371.329 399.872 381.065 251.639 375.148 241.467C369.225 231.303 280.152 237.189 280.152 246.188Z" fill="#D2D2D1"/>
</svg>
