<svg width="556" height="613" viewBox="0 0 556 613" fill="none" xmlns="http://www.w3.org/2000/svg">
<path opacity="0.5" fill-rule="evenodd" clip-rule="evenodd" d="M277.349 536.195C346.761 536.195 403.035 549.317 403.035 565.501C403.035 581.686 346.761 594.807 277.349 594.807C207.938 594.807 151.664 581.686 151.664 565.501C151.664 549.317 207.938 536.195 277.349 536.195Z" fill="#B2B1B2"/>
<path fill-rule="evenodd" clip-rule="evenodd" d="M174.758 594.585C176.141 591.649 180.546 586.675 187.213 586.675C193.88 586.675 254.437 595.035 273.814 594.354C293.191 593.672 352.706 588.48 362.192 585.094C371.684 581.701 378.207 582.832 380.776 585.544C383.346 588.256 382.952 593.679 381.569 594.585C380.186 595.491 261.949 626.669 174.758 594.585Z" fill="#959696"/>
<path fill-rule="evenodd" clip-rule="evenodd" d="M175.18 552.389C175.18 552.389 224.213 539.372 283.502 541.31C342.785 543.248 385.562 550.715 385.562 550.715C385.562 550.715 269.143 518.135 175.18 552.389Z" fill="#B2B1B2"/>
<path opacity="0.5" fill-rule="evenodd" clip-rule="evenodd" d="M110.565 4.76695V42.4726C110.565 42.4726 105.912 64.2256 93.6475 71.9573C-112.14 201.688 73.0259 527.098 158.348 585.287C210.675 620.968 344.578 620.968 396.911 585.287C482.233 527.098 667.398 201.688 461.611 71.9573C449.347 64.2256 444.694 42.4726 444.694 42.4726V4.76695C308.822 -1.58898 246.437 -1.58898 110.565 4.76695Z" fill="#CBCBCB"/>
<path opacity="0.5" fill-rule="evenodd" clip-rule="evenodd" d="M102.287 75.2891C71.4497 116.593 49.4275 115.931 24.1296 161.924C-5.14456 215.153 39.2875 320.379 284.275 320.379C532.85 320.379 567.148 212.666 538.863 161.243C513.565 115.25 492.463 116.593 461.627 75.2891C461.135 57.7094 335.021 58.5362 279.569 61.0296C224.117 58.5362 102.778 57.7094 102.287 75.2891Z" fill="#F4F3F3"/>
<path opacity="0.5" fill-rule="evenodd" clip-rule="evenodd" d="M114.064 16.9891C116.628 27.3861 123.874 58.3721 121.958 69.4768C120.042 80.5815 146.012 87.321 198.958 89.1266C251.898 90.9322 351.347 89.1266 381.229 89.1266C411.117 89.1266 441.815 85.5154 440.958 77.3803C440.102 69.2453 443.36 44.2845 443.094 36.2619C442.822 28.2327 433.463 16.526 433.463 16.526C433.463 16.526 104.885 4.31687 114.064 16.9891Z" fill="#C5C4C4"/>
<path opacity="0.5" fill-rule="evenodd" clip-rule="evenodd" d="M110.571 4.76717V42.4728C110.571 42.4728 105.917 64.2259 93.6475 71.9575C-112.145 201.695 73.0375 527.118 158.348 585.287C210.675 620.975 344.578 620.969 396.905 585.287C482.215 527.118 667.398 201.695 461.605 71.9575C449.341 64.2259 444.688 42.4728 444.688 42.4728V4.76717C435.659 4.34389 426.966 3.94699 418.545 3.58984C417.648 5.73274 416.762 7.92196 415.9 10.2368C412.237 53.1675 434.716 74.3451 448.415 81.5675C626.821 175.537 551.581 550.055 296.477 603.157C289.404 604.632 282.806 603.581 276.938 603.984C271.069 603.581 264.587 603.29 257.399 603.157C155.072 601.233 -131.65 319.012 102.271 76.1507C118.662 59.1332 142.328 61.2034 137.975 10.2435C137.119 7.95508 136.245 5.7791 135.354 3.65605C127.361 3.99335 119.108 4.36373 110.571 4.76717Z" fill="#B2B1B2"/>
<path fill-rule="evenodd" clip-rule="evenodd" d="M115.43 12.9766C115.43 12.9766 160.041 26.1316 199.108 26.998C238.175 27.8645 406.035 30.8605 420.406 26.998C434.771 23.1355 442.984 12.9766 442.984 12.9766H115.43Z" fill="#B2B1B2"/>
<path opacity="0.28" fill-rule="evenodd" clip-rule="evenodd" d="M211.798 32.2188C206.74 34.7056 199.818 44.8712 197.237 54.3621C194.661 63.853 196.484 78.0926 215.867 80.1231C235.25 82.1535 300.24 79.217 299.441 82.1536C296.548 92.7953 99.3495 91.962 97.7694 76.9551C97.3411 72.8876 104.107 73.7936 106.862 62.0408C109.617 50.2945 119.195 27.7545 122.766 27.5098C126.337 27.2585 172.882 35.1554 211.798 32.2188Z" fill="#959696"/>
<path opacity="0.5" fill-rule="evenodd" clip-rule="evenodd" d="M299.461 83.276C299.461 83.276 379.053 85.0815 385.535 81.9201C392.012 78.7587 383.631 65.8749 373.48 65.2002C363.328 64.519 356.279 63.1631 352.36 58.1961C348.448 53.2291 351.654 50.815 354.456 45.3189C357.257 39.8227 357.789 39.6706 354.467 32.6666C351.145 25.6625 348.535 20.0936 354.785 20.1002C361.036 20.1135 416.089 20.2061 423.144 18.9627C430.193 17.7193 429.458 16.4494 431.877 30.4046C434.297 44.3665 442.781 65.478 449.785 71.781C456.788 78.084 455.387 80.5642 446.115 82.145C436.849 83.7323 380.315 95.9283 299.461 83.276Z" fill="#B2B1B2"/>
<path opacity="0.5" fill-rule="evenodd" clip-rule="evenodd" d="M221.875 75.3431C224.445 69.6948 219.305 38.5104 225.017 36.9297C230.73 35.349 252.15 32.0156 252.15 44.8399C252.15 57.6642 253.29 75.343 249.297 80.0852C245.292 84.834 215.873 84.834 221.875 75.3431Z" fill="white"/>
<path opacity="0.5" fill-rule="evenodd" clip-rule="evenodd" d="M199.762 75.671C200.896 70.7437 198.627 43.5407 201.151 42.165C203.674 40.7827 213.137 37.8792 213.137 49.0633C213.137 60.2474 213.64 75.6709 211.875 79.8112C210.104 83.9449 197.111 83.9449 199.762 75.671Z" fill="white"/>
<path opacity="0.39" fill-rule="evenodd" clip-rule="evenodd" d="M168.855 92.7734C184.273 97.2973 219.086 99.0963 240.825 99.0963C262.558 99.0963 270.087 115.366 269.694 140.221C269.3 165.076 237.265 195.348 214.728 229.694C192.185 264.04 190.455 319.325 206.944 398.553C223.433 477.78 255.855 556.022 255.855 572.676C255.855 589.33 216.98 583.516 198.123 575.388C179.267 567.259 49.5475 406.939 31.2527 283.478C12.952 159.997 101.064 112.225 168.855 92.7734Z" fill="white"/>
<path opacity="0.31" fill-rule="evenodd" clip-rule="evenodd" d="M373.284 127.793C373.284 127.793 437.933 203.714 437.933 280.527C437.933 357.347 409.469 469.704 388.905 513.699C368.341 557.688 369.91 564.93 373.29 570.632C376.664 576.333 608.276 310.468 484.367 157.615C456.523 123.269 442.713 144.176 373.284 127.793Z" fill="white"/>
<path fill-rule="evenodd" clip-rule="evenodd" d="M56.9525 220.845C56.9525 220.845 75.7335 243.961 118.586 256.613C161.443 269.265 178.778 274.219 174.443 285.78C170.108 297.335 148.438 317.143 155.181 350.16C161.924 383.176 173.482 400.789 157.589 399.684C141.702 398.58 120.993 374.922 113.77 388.679C106.547 402.436 175.097 498.615 164.326 513.04C153.555 527.464 109.916 450.856 87.28 398.031C64.6559 345.206 20.2933 217.413 56.9525 220.845Z" fill="white"/>
<path fill-rule="evenodd" clip-rule="evenodd" d="M115.233 202.624C103.165 215.13 150.306 246.427 173.463 244.913C196.619 243.405 162.125 198.397 115.233 202.624Z" fill="white"/>
<path fill-rule="evenodd" clip-rule="evenodd" d="M90.6294 82.7188C90.6294 82.7188 47.2912 120.689 26.5829 179.017C5.87452 237.345 8.28218 292.921 8.28218 292.921C8.28218 292.921 -16.7554 142.151 90.6294 82.7188Z" fill="#959696"/>
<path fill-rule="evenodd" clip-rule="evenodd" d="M467.883 82.7188C467.883 82.7188 511.215 120.689 531.924 179.017C552.632 237.345 550.224 292.921 550.224 292.921C550.224 292.921 575.262 142.151 467.883 82.7188Z" fill="#959696"/>
<path opacity="0.5" fill-rule="evenodd" clip-rule="evenodd" d="M303.939 576.03C308.754 577.683 349.772 587.63 365.855 544.687C381.945 501.743 415.167 396.642 418.055 358.671C420.943 320.701 412.753 261.824 368.935 259.073C325.116 256.321 318.854 341.614 314.038 371.33C309.235 401.04 295.026 568.053 303.939 576.03Z" fill="#D4D4D4"/>
</svg>
