<svg width="50" height="77" viewBox="0 0 50 77" fill="none" xmlns="http://www.w3.org/2000/svg">
<path opacity="0.45" d="M38.8804 71.4008C38.8804 73.2057 36.4382 74.7909 32.7488 75.704C30.6522 76.2232 28.1515 76.5243 25.4668 76.5243C18.0592 76.5243 12.0547 74.2311 12.0547 71.4009C12.0547 70.7092 12.413 70.05 13.0637 69.4494C13.1951 69.3257 13.3392 69.2069 13.4947 69.0898C15.3559 67.6851 18.8613 66.6517 23.0447 66.3604C23.8297 66.3067 24.6389 66.2773 25.4667 66.2773C32.8744 66.2773 38.8804 68.5721 38.8804 71.4008Z" fill="#C9D4D6"/>
<path opacity="0.3" d="M38.8829 71.4008C38.8829 73.2057 36.4407 74.7909 32.7513 75.704C33.0953 72.5661 25.3137 73.1357 20.2612 72.6931C15.9323 72.3122 13.7072 70.1036 13.0662 69.4494C12.9592 69.3404 12.8964 69.2736 12.875 69.2672L13.4973 69.0898L23.0472 66.3604C23.8323 66.3067 24.6415 66.2773 25.4693 66.2773C32.8769 66.2773 38.8829 68.5721 38.8829 71.4008Z" fill="#B1BBBD"/>
<path opacity="0.2" d="M49.2489 41.2314C46.6159 28.3302 32.2842 20.0731 31.2584 16.9955C30.2326 13.918 33.8229 6.48047 33.8229 6.48047H25.3925H24.5906H16.1602C16.1602 6.48047 19.7506 13.918 18.7247 16.9955C17.6989 20.0731 3.3672 28.3302 0.734177 41.2314C-2.76153 58.36 6.64761 70.692 20.0077 71.6656C21.2503 71.7561 24.9916 71.6656 24.9916 71.6656C24.9916 71.6656 28.9881 71.7547 30.3163 71.6656C43.6602 70.7701 52.7447 58.36 49.2489 41.2314Z" fill="#C9D4D6"/>
<path opacity="0.1" d="M30.4407 69.6566C30.3668 69.663 30.2929 69.6681 30.2202 69.6719C30.145 69.677 30.071 69.6808 29.9958 69.6847C29.9206 69.6885 29.8454 69.6923 29.7702 69.6949C27.1068 69.793 23.2591 69.8555 20.0819 69.6427C9.03342 68.9045 -0.86005 57.3583 2.39487 41.4046C3.13815 37.7633 5.02503 34.4496 7.31861 31.5197C12.5968 24.7802 20.036 20.0705 20.7016 18.0726C21.6564 15.2065 18.5317 6.91406 18.5317 6.91406H31.4492C31.4492 6.91406 31.1726 7.68544 30.8194 8.83413C30.0366 11.3815 28.879 15.7866 29.5368 17.7628C30.2431 19.878 38.3964 25.2022 43.6069 32.676C43.6299 32.7079 43.6528 32.7398 43.6745 32.7717C45.4925 35.4007 46.9447 38.2936 47.5796 41.4045C50.7695 57.0344 41.2356 68.8036 30.4407 69.6566Z" fill="#E1ECEF"/>
<path opacity="0.37" d="M43.6127 32.6779L36.31 33.0361C36.31 33.0361 27.3255 22.1657 26.0239 20.0442C24.7221 17.9214 26.0239 9.25284 26.0239 9.25284L30.8253 8.83594C30.0425 11.3833 28.8849 15.7884 29.5428 17.7646C30.2489 19.8797 38.4021 25.204 43.6127 32.6779Z" fill="#BFD0D6"/>
<path opacity="0.3" d="M34.3869 3.24609V6.49087C34.3869 7.65875 32.5484 8.68129 29.7869 9.25244C28.3094 9.55841 26.5665 9.73565 24.7013 9.73565C19.78 9.73565 15.7181 8.50535 15.0997 6.91417L15.0156 6.91547V3.24609H34.3869Z" fill="#C9D4D6"/>
<path opacity="0.3" d="M34.3773 3.24609V6.49087C34.3773 7.65875 32.5389 8.68129 29.7774 9.25244C29.975 8.54097 30.0209 7.58604 28.9462 7.38718C27.188 7.0608 23.8707 6.47937 23.8516 6.47937L31.1518 3.24609H34.3773Z" fill="#C0CACC"/>
<path opacity="0.3" d="M24.7014 6.48938C30.0508 6.48938 34.3873 5.03669 34.3873 3.24469C34.3873 1.4527 30.0508 0 24.7014 0C19.3521 0 15.0156 1.4527 15.0156 3.24469C15.0156 5.03669 19.3521 6.48938 24.7014 6.48938Z" fill="#E1ECEF"/>
<path d="M17.1691 6.49217C16.7073 6.69673 19.9685 8.55973 22.5075 8.16911C25.0465 7.77858 18.0154 6.11737 17.1691 6.49217Z" fill="#E1ECEF"/>
<path opacity="0.3" d="M19.2174 3.80341C20.3069 3.24687 22.4361 2.86879 24.8846 2.86879C27.201 2.86879 29.231 3.20719 30.3658 3.71496C30.859 3.46302 31.1393 3.17443 31.1393 2.86776C31.1393 1.88369 28.2557 1.08594 24.6985 1.08594C21.1414 1.08594 18.2578 1.88369 18.2578 2.86776C18.2579 3.211 18.6095 3.53141 19.2174 3.80341Z" fill="#C9D4D6"/>
<path opacity="0.66" d="M9.4849 36.9049C6.2005 39.5535 3.72067 50.9025 6.78348 56.2504C9.84629 61.5983 11.0181 60.5566 11.2786 59.6452C11.539 58.7337 8.86317 56.9368 9.48498 50.5435C10.1066 44.1502 13.5237 33.6478 9.4849 36.9049Z" fill="#F5F9FA"/>
<path opacity="0.67" d="M19.3828 23.2266C19.3828 23.2266 9.35703 30.9291 8.57579 36.9634C7.79455 42.9977 10.0431 41.0319 11.0672 40.7778C12.0913 40.5237 22.3412 24.026 19.3828 23.2266Z" fill="white"/>
<path opacity="0.72" d="M23.9701 74.6607C23.7702 74.4661 20.6661 74.3006 18.7226 73.885C16.7791 73.4695 15.3942 72.3059 14.8355 72.0566C14.2768 71.8073 13.7423 72.4167 14.5926 73.1924C15.4428 73.9681 18.1881 74.9377 20.2045 75.187C22.221 75.4364 24.9662 75.6303 23.9701 74.6607Z" fill="white"/>
</svg>
