<svg width="35" height="75" viewBox="0 0 35 75" fill="none" xmlns="http://www.w3.org/2000/svg">
<path opacity="0.2" d="M34.6867 49.4651C34.6867 54.2188 34.0302 59.8256 33.3752 64.244C32.7202 68.6625 32.0636 71.8933 32.0636 71.8933C32.0636 73.3943 26.1841 74.6274 18.6805 74.7585C18.2395 74.7671 17.7943 74.7709 17.3433 74.7709C13.2775 74.7709 9.59853 74.4488 6.93416 73.9283C4.2698 73.4077 2.62295 72.6876 2.62295 71.8934C2.62295 71.8934 0 58.9736 0 49.4651C0 41.3485 9.34593 11.9131 12.0816 3.47245C12.5497 2.02563 12.8252 1.19531 12.8252 1.19531H21.8614C21.8614 1.19531 22.4322 2.92146 23.3342 5.73529C26.7036 16.2525 34.6867 41.9639 34.6867 49.4651Z" fill="#CBDEE3"/>
<path opacity="0.1" d="M31.165 49.5062C31.165 53.611 30.5957 58.4525 30.0279 62.2689C29.4586 66.0844 28.8894 68.8739 28.8894 68.8748C28.8894 70.246 23.1724 71.359 16.1216 71.359C12.5961 71.359 9.4031 71.0809 7.0932 70.6308C4.7833 70.1817 3.35377 69.5604 3.35377 68.8748C3.35377 68.8748 1.07812 57.7169 1.07812 49.5062C1.07812 41.2956 13.505 1.59766 13.505 1.59766H18.7439C18.7439 1.59766 21.9712 11.9141 25.1371 23.1166C28.1804 33.8887 31.165 45.4808 31.165 49.5062Z" fill="#E1ECEF"/>
<g opacity="0.71">
<path d="M30.6055 64.457C30.0961 66.9559 28.5193 67.4804 28.5193 67.4804L28.5204 67.482C26.4812 66.635 22.3983 66.0491 17.6613 66.0241C17.5227 66.3197 17.7332 66.6669 17.9797 66.9367C23.6525 66.9971 28.3342 67.8615 29.5794 69.0081C29.6365 69.059 29.6865 69.1109 29.7279 69.1628C29.8449 69.0185 29.9048 68.8679 29.9077 68.7163C30.0433 68.5563 30.1146 68.3922 30.1146 68.225C30.1146 68.224 30.3443 66.985 30.6582 65.0043L30.6055 64.457Z" fill="#CBDEE3"/>
<path d="M12.8799 66.1977C10.1875 66.4169 7.93877 66.8282 6.5003 67.353C3.87758 65.5656 3.42237 54.9854 3.2868 53.0006C3.13981 50.8799 4.78507 50.9941 4.78507 50.9941L6.20061 49.9648L2.39062 50.2276C2.4035 50.506 2.41916 50.7864 2.43629 51.0668C2.92004 59.2915 4.57963 68.2245 4.57963 68.2245C4.57963 68.5039 4.77656 68.7749 5.14467 69.0294L5.72401 68.5984C7.4585 67.6964 11.4228 67.0408 16.1507 66.945C16.151 66.9449 16.1512 66.9448 16.1515 66.9447C17.6785 66.228 12.928 66.198 12.8799 66.1977Z" fill="#CBDEE3"/>
</g>
<path opacity="0.67" d="M12.3838 11.6602C12.3838 11.6602 3.86881 39.2154 5.39379 40.4882C6.91877 41.761 8.62558 41.9202 9.41173 39.6928C10.1979 37.4653 17.4116 9.9763 12.3838 11.6602Z" fill="white"/>
<path opacity="0.72" d="M4.43853 71.1705C5.20881 70.3345 6.60963 72.4238 15.6703 72.3338C18.176 72.3088 17.5136 73.3947 15.2077 73.3865C13.6141 73.3808 3.09499 72.6288 4.43853 71.1705Z" fill="white"/>
<path opacity="0.2" d="M23.4416 6.16154L22.9652 6.49824C22.9652 6.49824 21.962 4.44626 20.2169 3.84678C16.1694 2.45643 12.2344 2.68234 12.2344 2.68234L12.76 1.19531L21.7045 1.19533C21.7045 1.19533 22.3777 3.08354 23.4416 6.16154Z" fill="#B4C5C9"/>
<path opacity="0.2" d="M22.7818 1.02635C22.1513 0.340577 11.8262 1.11157 11.8262 1.11157C11.8262 1.11157 11.096 1.96228 11.8206 2.83582C11.8212 2.83667 11.822 2.83751 11.8225 2.83829C11.8244 2.84047 11.8258 2.84259 11.8276 2.8447H11.8279C12.2544 3.41356 14.5612 3.84825 17.3438 3.84825C20.3373 3.84825 22.7808 3.34524 22.9243 2.71321C23.1299 2.44276 23.4788 1.78445 22.7818 1.02635Z" fill="#CBDEE3"/>
<path opacity="0.2" d="M17.3531 2.3877C20.4389 2.3877 22.9405 1.85319 22.9405 1.19385C22.9405 0.534504 20.4389 0 17.3531 0C14.2672 0 11.7656 0.534504 11.7656 1.19385C11.7656 1.85319 14.2672 2.3877 17.3531 2.3877Z" fill="#DBEFF5"/>
<path opacity="0.67" d="M5.40637 52.5247C5.40637 52.5247 4.67258 64.2987 7.00422 64.4576C9.33587 64.6166 10.4358 50.2336 5.40637 52.5247Z" fill="white"/>
</svg>
