<svg width="155" height="382" viewBox="0 0 155 382" fill="none" xmlns="http://www.w3.org/2000/svg">
<path opacity="0.56" d="M78.7949 381.912C113.476 381.912 141.59 374.69 141.59 365.78C141.59 356.871 113.476 349.648 78.7949 349.648C44.1142 349.648 16 356.871 16 365.78C16 374.69 44.1142 381.912 78.7949 381.912Z" fill="#C9D4D6"/>
<path d="M94.9045 13.5753L91.9778 27.8907C91.9778 30.0416 86.4092 31.7851 79.5397 31.7851C72.6703 31.7851 67.1016 30.0416 67.1016 27.8907H66.9011L63.6094 10.5156L94.9045 13.5753Z" fill="#B89C6D"/>
<path opacity="0.3" d="M98.6826 8.83789C98.6359 9.24543 98.5818 9.69397 98.5273 10.1816C98.2318 12.8306 97.8303 16.6317 97.4053 21.249C96.5555 30.4806 95.6098 42.9927 95.2314 56.0908C94.8536 69.1728 95.0392 82.9181 96.4727 94.5898C97.1893 100.425 98.2259 105.811 99.6904 110.367C101.143 114.887 103.082 118.801 105.734 121.493C114.999 130.896 122.111 133.921 128.061 137.938C133.918 141.892 139.607 147.299 147.134 162.282C148.765 165.529 149.994 170.887 150.785 178.079C151.569 185.2 151.9 193.864 151.878 203.551C151.834 222.919 150.381 246.186 148.407 268.994C144.46 314.599 138.446 358.176 137.538 364.654L137.485 365.026L137.545 365.397C137.566 365.532 137.573 365.621 137.573 365.682C137.573 366.513 136.867 367.986 133.84 369.824C130.962 371.572 126.631 373.235 121.059 374.667C109.951 377.52 94.4716 379.313 77.2783 379.313C60.1851 379.313 44.7853 377.541 33.6924 374.716C28.1287 373.299 23.7834 371.651 20.8691 369.914C17.8048 368.087 17.0197 366.598 16.9883 365.745L16.9277 364.077L16.751 364.011C16.7301 363.861 16.7075 363.699 16.6836 363.527C16.506 362.248 16.2477 360.366 15.9238 357.959C15.276 353.146 14.3676 346.233 13.3252 337.843C11.24 321.059 8.61969 298.368 6.47949 274.73C4.33842 251.083 2.68131 226.531 2.51367 206.011C2.42984 195.748 2.7198 186.541 3.49707 178.983C4.28232 171.348 5.54152 165.671 7.24414 162.282C14.7715 147.299 20.4608 141.892 26.3184 137.938C32.2676 133.921 39.3794 130.896 48.6436 121.493C51.2957 118.801 53.2356 114.886 54.6885 110.366C56.1529 105.81 57.1896 100.425 57.9062 94.5898C59.3397 82.9181 59.5243 69.1727 59.1465 56.0908C58.7682 42.9927 57.8234 30.4805 56.9736 21.249C56.5486 16.6316 56.1461 12.8306 55.8506 10.1816C55.7962 9.69395 55.742 9.24544 55.6953 8.83789H98.6826Z" stroke="white" stroke-width="5"/>
<path opacity="0.21" d="M133.977 350.938C133.977 358.769 109.262 365.414 78.776 365.414C48.4654 365.414 23.8661 359.138 23.5813 351.37C23.5783 351.367 1.75331 192.103 15.247 165.243C18.1518 159.46 20.7745 155.227 23.2609 151.984C32.328 140.158 39.5763 141.478 52.0375 128.83C65.6618 115.001 62.7484 39.7663 61.6476 18.6861C61.4666 15.2008 61.3331 13.1953 61.3331 13.1953H96.1207C96.1207 13.1953 89.4777 112.712 105.357 128.83C117.818 141.478 125.066 140.158 134.134 151.984C135.674 153.993 137.264 156.379 138.943 159.28C139.978 161.064 141.044 163.04 142.147 165.243C155.098 191.022 133.977 350.738 133.977 350.938Z" fill="#E1ECEF"/>
<path opacity="0.37" d="M138.93 159.28C121.591 161.365 96.2563 161.687 89.4709 147.332C78.876 124.92 91.1681 23.0546 82.7299 23.1284C76.5824 23.1786 66.6044 20.2722 61.6348 18.6861C61.4538 15.2008 61.3203 13.1953 61.3203 13.1953H96.1079C96.1079 13.1953 89.465 112.712 105.344 128.83C117.805 141.478 125.054 140.158 134.121 151.984C135.661 153.993 137.251 156.379 138.93 159.28Z" fill="#BFD0D6"/>
<path d="M59.9518 344.761C53.8162 344.989 35.308 346.548 32.2255 352C30.8399 354.449 30.4245 356.525 30.3889 358.067C26.1163 356.079 23.648 353.796 23.5619 351.368C23.5619 351.368 18.1354 311.775 14.3672 268.74C19.8975 296.779 30.1278 347.476 31.7712 347.476C31.7712 347.476 44.728 342.369 63.3607 342.451C81.9905 342.534 66.0875 344.534 59.9518 344.761Z" fill="#CBDEE3"/>
<path d="M143.922 254.775C140.326 302.533 133.947 350.822 133.947 350.931C133.947 352.5 132.956 354.018 131.128 355.447C131.128 355.444 131.131 355.444 131.131 355.441C135.054 345.768 107.514 344.906 103.574 344.959C99.6341 345.015 96.6047 343.397 101.15 342.445C105.696 341.491 127.512 346.114 128.42 344.959C129.324 343.816 143.696 256.146 143.922 254.775Z" fill="#CBDEE3"/>
<path opacity="0.27" d="M117.913 193.386C105.542 169.204 58.5043 167.724 39.7538 180.493C21.003 193.261 17.3671 212.289 27.3662 224.041C37.3653 235.793 144.827 245.999 117.913 193.386Z" fill="#E8F1F3"/>
<path opacity="0.67" d="M67.0361 78.0799C67.0361 78.0799 67.2486 113.573 63.6023 122.157C59.956 130.742 28.1399 153.065 27.2308 167.242C26.3217 181.419 20.8676 207.462 34.5031 206.657C48.1387 205.852 29.2802 187.655 43.2546 163.271C57.229 138.886 70.6148 141.626 71.6488 122.157C72.6828 102.689 76.6189 66.8635 67.0361 78.0799Z" fill="white"/>
<path d="M38.2852 273.028C42.6023 267.256 57.9917 338.508 50.3455 340.501C42.699 342.494 29.326 285.007 38.2852 273.028Z" fill="#E8F1F3"/>
<path opacity="0.3" d="M112.302 10.625V21.2169C112.302 25.0292 105.915 28.3671 96.3204 30.2315C91.1868 31.2303 85.1314 31.8088 78.6511 31.8088C61.5531 31.8088 47.4406 27.7928 45.2922 22.5987L45 22.6029V10.625H112.302Z" fill="#C9D4D6"/>
<path opacity="0.3" d="M78.6511 21.2213C97.2361 21.2213 112.302 16.4791 112.302 10.6293C112.302 4.77959 97.2361 0 78.6511 0C60.0661 0 45 4.74216 45 10.5919C45 16.4417 60.0661 21.2213 78.6511 21.2213Z" fill="#E1ECEF"/>
<path opacity="0.3" d="M52.5202 21.2081C50.917 21.8771 62.2394 27.9699 71.0542 26.6924C79.8693 25.4152 55.4586 19.9823 52.5202 21.2081Z" fill="#E1ECEF"/>
<path opacity="0.7" d="M59.626 12.4289C63.4144 10.6122 70.8184 9.37812 79.3327 9.37812C87.3876 9.37812 94.4465 10.4827 98.3925 12.1402C100.108 11.3178 101.082 10.3758 101.082 9.37475C101.082 6.16259 91.055 3.55859 78.6855 3.55859C66.3163 3.55859 56.2891 6.16259 56.2891 9.37475C56.2894 10.4951 57.5121 11.541 59.626 12.4289Z" fill="#C9D4D6"/>
</svg>
