<svg width="419" height="544" viewBox="0 0 419 544" fill="none" xmlns="http://www.w3.org/2000/svg">
<path opacity="0.5" fill-rule="evenodd" clip-rule="evenodd" d="M89.8398 7.56178C90.6645 21.7687 30.7747 43.8049 25.6845 50.1077C21.0554 55.84 19.8051 67.1197 83.4239 70.4796C147.038 73.8396 325.187 69.5826 347.809 68.0836C370.431 66.5847 404.196 67.7807 402.511 57.8937C400.822 48.0067 358.473 33.434 347.233 24.8414C335.992 16.2488 336.458 0 336.458 0L89.8398 7.56178Z" fill="#C5C4C4"/>
<path opacity="0.5" d="M204.68 534.25C276.661 534.25 335.013 523.22 335.013 509.613C335.013 496.007 276.661 484.977 204.68 484.977C132.7 484.977 74.3477 496.007 74.3477 509.613C74.3477 523.22 132.7 534.25 204.68 534.25Z" fill="#CBCBCB"/>
<g clip-path="url(#clip0_34_8476)">
<path fill-rule="evenodd" clip-rule="evenodd" d="M68.31 2.94727L67.636 16.1312C67.636 16.1312 40.2827 23.3193 32.1818 26.6162C24.0809 29.9132 2.80677 40.0992 0.106478 63.4691C-2.09721 82.5231 30.5014 353.39 42.6106 452.724C47.1555 490.022 48.7472 509.351 94.3152 528.157C142.792 548.163 275.519 548.163 323.991 528.157C370.229 509.076 371.235 489.325 375.847 451.485C388.071 351.151 420.39 82.4444 418.196 63.4691C415.495 40.0992 394.221 29.9132 386.12 26.6162C378.015 23.3232 357.925 16.1312 357.925 16.1312L357.251 2.94727C243.834 2.94727 181.727 2.94727 68.31 2.94727Z" fill="#F23608"/>
</g>
<path opacity="0.5" fill-rule="evenodd" clip-rule="evenodd" d="M68.31 2.94727L67.636 16.1312C67.636 16.1312 40.2827 23.3193 32.1818 26.6162C24.0809 29.9132 2.80677 40.0992 0.106478 63.4691C-2.09721 82.5231 30.5014 353.39 42.6106 452.724C47.1555 490.022 48.7472 509.351 94.3152 528.157C142.792 548.163 275.519 548.163 323.991 528.157C370.229 509.076 371.235 489.325 375.847 451.485C388.071 351.151 420.39 82.4444 418.196 63.4691C415.495 40.0992 394.221 29.9132 386.12 26.6162C378.015 23.3232 357.925 16.1312 357.925 16.1312L357.251 2.94727H326.882C326.882 2.94727 326.386 11.1071 334.398 21.1947C342.414 31.2823 393.543 39.7057 393.543 63.355C393.543 87.0043 360.306 440.54 350.852 469.901C324.302 552.361 97.9955 552.361 71.4448 469.901C61.9915 440.54 28.7544 87.0082 28.7544 63.355C28.7544 39.7018 79.8871 31.2784 87.8993 21.1947C95.9115 11.1071 95.4149 2.94727 95.4149 2.94727H68.31Z" fill="#B2B1B2"/>
<path opacity="0.5" fill-rule="evenodd" clip-rule="evenodd" d="M68.3086 2.34961C68.3086 2.34961 80.8125 10.9107 88.7449 11.0602C96.6817 11.2097 237.815 11.0602 237.815 11.0602C237.815 11.0602 343.672 11.8078 349.578 8.51471C355.489 5.21774 357.245 2.34961 357.245 2.34961H68.3086Z" fill="#B8B7B8"/>
<path opacity="0.3" fill-rule="evenodd" clip-rule="evenodd" d="M70.6927 9.2793C70.6927 9.2793 71.9563 15.6293 65.3586 18.4187C58.7608 21.2043 26.5257 30.7017 17.0724 37.8937C7.61917 45.0857 0.360826 58.1162 1.20328 72.3467C2.04574 86.5771 42.2531 456.648 46.9708 470.816C51.6842 484.987 66.1655 513.995 106.116 527.148C146.066 540.3 171.211 537.33 171.211 537.33C171.211 537.33 103.54 527.368 82.5048 506.178C61.4744 484.987 57.4172 465.127 54.38 447.151C51.3427 429.175 11.3792 84.3385 11.3792 84.3385C-0.277743 24.7216 60.0998 38.9206 70.5507 21.2043C73.9649 15.4208 70.6927 9.2793 70.6927 9.2793Z" fill="#959696"/>
<path opacity="0.3" fill-rule="evenodd" clip-rule="evenodd" d="M348.12 9.2793C348.12 9.2793 346.856 15.6293 353.454 18.4187C360.052 21.2043 392.287 30.7017 401.74 37.8937C411.193 45.0857 418.452 58.1162 417.609 72.3467C416.767 86.5771 376.56 456.648 371.842 470.816C367.128 484.987 352.647 513.995 312.697 527.148C272.747 540.3 247.602 537.33 247.602 537.33C247.602 537.33 315.273 527.368 336.303 506.178C357.338 484.987 361.391 465.127 364.428 447.151C367.465 429.175 407.429 84.3385 407.429 84.3385C419.086 24.7216 358.708 38.9206 348.257 21.2043C344.852 15.4208 348.12 9.2793 348.12 9.2793Z" fill="#959696"/>
<path opacity="0.1" fill-rule="evenodd" clip-rule="evenodd" d="M36.4807 56.9954C36.4807 56.9954 64.5035 63.3572 120.558 63.3572C176.608 63.3572 319.435 59.533 324.667 63.3572C329.9 67.1814 331.851 86.3691 316.398 95.9453C300.946 105.517 205.167 114.102 182.013 162.455C158.859 210.812 162.042 421.157 170.68 453.065C179.317 484.976 196.202 513.217 215.782 520.176C235.363 527.136 121.476 534.128 85.4451 471.041C49.4146 407.958 23.9945 49.8074 36.4807 56.9954Z" fill="white"/>
<path opacity="0.28" fill-rule="evenodd" clip-rule="evenodd" d="M103.798 13.5566C103.798 13.5566 100.73 19.4896 94.6022 23.4476C88.4744 27.4016 74.5427 32.0952 64.2337 37.1666C53.9247 42.2379 48.0586 54.6547 48.0586 54.6547C48.0586 54.6547 100.176 60.0408 124.137 59.7929C148.098 59.5451 170.778 56.7045 182.648 46.9355C194.518 37.1705 194.633 14.0445 194.633 14.0445C194.633 14.0445 146.985 14.3002 103.798 13.5566Z" fill="white"/>
<path opacity="0.5" fill-rule="evenodd" clip-rule="evenodd" d="M141.499 27.9215C141.499 27.9215 139.978 35.263 134.577 39.6065C129.172 43.95 124.291 51.2915 123.444 52.9399C122.592 54.5884 140.319 58.7863 151.799 55.6389C163.278 52.4914 178.075 45.4529 180.332 33.3194C182.584 21.1781 144.705 23.1295 141.499 27.9215Z" fill="white"/>
<path opacity="0.5" fill-rule="evenodd" clip-rule="evenodd" d="M119.403 71.5223C110.969 74.3786 110.122 85.7646 121.269 87.1101C132.412 88.4596 197.751 90.0845 202.983 84.3246C208.215 78.5726 194.403 65.2391 119.403 71.5223Z" fill="white"/>
<path opacity="0.5" fill-rule="evenodd" clip-rule="evenodd" d="M75.9577 70.0351C69.4176 74.2291 74.3127 82.6171 87.6501 81.5666C100.992 80.5201 103.018 66.8876 75.9577 70.0351Z" fill="white"/>
<path opacity="0.2" fill-rule="evenodd" clip-rule="evenodd" d="M181.204 515.243C181.204 515.243 133.255 492.617 133.255 436.147C133.255 379.678 130.892 150.928 127.181 142.54C123.469 134.152 64.2358 105.518 52.3927 105.518C40.5495 105.518 74.3586 403.654 79.9055 437.347C85.4524 471.045 115.023 505.946 181.204 515.243Z" fill="white"/>
<path opacity="0.27" fill-rule="evenodd" clip-rule="evenodd" d="M247.547 529.409C247.547 529.409 281.626 527.344 289.155 463.989C296.684 400.639 321.009 94.2918 316.943 77.2168C312.877 60.1418 308.164 51.1518 293.984 42.7638C279.8 34.3758 276.802 30.0874 276.762 24.1898C276.722 18.2922 275.073 11.1003 275.073 11.1003L312.877 10.7305C312.877 10.7305 321.195 29.2808 336.461 36.4728C351.723 43.6648 371.982 51.7498 374.682 75.1198C377.383 98.4897 349.67 449.546 336.51 474.478C323.35 499.41 285.347 529.342 247.547 529.409Z" fill="white"/>
<path opacity="0.19" fill-rule="evenodd" clip-rule="evenodd" d="M206.242 529.24C272.929 507.424 251.216 111.225 284.449 105.52C298.398 103.124 322.439 110.662 319.876 201.266C317.934 269.889 306.512 457.49 273 512.122C262.261 529.618 223.45 532.777 206.242 529.24Z" fill="#959696"/>
<defs>
<clipPath id="clip0_34_8476">
<rect width="418" height="519" fill="white" transform="translate(0 24)"/>
</clipPath>
</defs>
</svg>
