<svg width="168" height="353" viewBox="0 0 168 353" fill="none" xmlns="http://www.w3.org/2000/svg">
<path d="M107.452 21.7822C107.444 21.8816 107.436 21.9836 107.428 22.0879C107.277 23.9859 107.072 26.6904 106.856 29.9209C106.425 36.3778 105.949 44.9542 105.776 53.3994V53.4004C105.631 60.5853 105.704 67.7454 106.224 73.4414C106.483 76.2814 106.86 78.8467 107.41 80.9023C107.685 81.9308 108.021 82.8987 108.443 83.7363C108.829 84.5013 109.357 85.2986 110.106 85.9033L110.259 86.0215C112.231 87.4865 114.534 88.582 116.76 89.5137C117.879 89.9822 119.021 90.4261 120.111 90.8535C121.214 91.2859 122.269 91.7036 123.275 92.1396C127.355 93.9077 129.692 95.6131 130.321 98.168L130.376 98.418C131.167 102.397 139.734 161.795 148.126 220.375C152.316 249.626 156.456 278.623 159.548 300.308C161.094 311.15 162.379 320.163 163.276 326.467C163.702 329.455 164.041 331.835 164.279 333.511H2.88086C3.11936 331.835 3.45825 329.455 3.88379 326.467C4.78129 320.163 6.06554 311.15 7.61133 300.308C10.7029 278.623 14.8418 249.626 19.0312 220.375C27.42 161.804 35.9835 102.416 36.7764 98.4199C37.3149 95.7237 39.6714 93.9647 43.8828 92.1396C44.8892 91.7035 45.9446 91.2859 47.0469 90.8535C48.1365 90.4261 49.2779 89.9821 50.3965 89.5137C52.6212 88.582 54.9237 87.4866 56.8945 86.0215C58.2739 84.9963 59.0356 83.2415 59.5244 81.6582C60.0527 79.9468 60.4339 77.836 60.7129 75.5039C61.2725 70.8264 61.4612 64.902 61.4404 58.7178C61.4041 47.8772 60.7226 35.9978 60.1719 28.1113L59.9463 24.9902C59.8545 23.7465 59.7689 22.6663 59.6982 21.7822L83.5791 21.5215L107.452 21.7822Z" stroke="white" stroke-opacity="0.2" stroke-width="5"/>
<path opacity="0.5" d="M83.5802 352.046C129.74 352.046 167.16 344.866 167.16 336.009C167.16 327.152 129.74 319.973 83.5802 319.973C37.4201 319.973 0 327.152 0 336.009C0 344.866 37.4201 352.046 83.5802 352.046Z" fill="#CBDEE3"/>
<path opacity="0.1" d="M124.96 114.44C123.601 108.005 111.112 107.481 105.314 103.424C99.5162 99.3668 102.362 38.1367 102.362 38.1367L82.2934 39.6876L65.4863 38.8717C65.4863 38.8717 67.5902 99.3668 61.7924 103.424C55.9941 107.481 43.5054 108.005 42.1463 114.44C40.7872 120.875 13.2812 331.937 13.2812 331.937H83.5531H153.825C153.825 331.937 126.319 120.875 124.96 114.44Z" fill="#E1ECEF"/>
<path d="M41.5609 322.762C35.4746 324.654 16.7404 327.714 16.9745 333.69C17.016 334.67 16.9401 335.471 16.782 336.13C14.5126 334.807 13.2812 333.39 13.2812 331.918C13.2812 331.704 13.3088 331.49 13.3569 331.276C13.8037 327.667 16.0735 309.137 19.168 284.014C19.2916 283.53 19.4226 283.038 19.5532 282.541C19.5532 282.541 17.8477 324.23 20.9216 325.39C20.9216 325.39 38.2799 320.574 52.0965 319.701C65.9066 318.828 47.6477 320.865 41.5609 322.762Z" fill="#CBDEE3"/>
<path d="M151.318 335.508C151.318 335.508 152.776 328.466 140.603 325.397C128.43 322.332 103.609 320.727 103.609 320.29C103.609 319.853 138.258 322.914 143.409 323.642C147.088 324.16 148.14 301.246 148.436 288.121C151.269 311.125 153.325 327.854 153.745 331.279C153.8 331.492 153.828 331.711 153.828 331.925C153.828 333.166 152.954 334.369 151.318 335.508Z" fill="#CBDEE3"/>
<path opacity="0.37" d="M110.135 19.3129C110.135 19.3129 108.588 36.6666 108.244 53.4508L91.2159 55.4328C91.2159 55.4328 92.7084 36.4867 91.2159 28.9484C90.0742 23.1652 67.7643 24.3211 57.4209 25.1771C57.1527 21.5428 56.9531 19.3126 56.9531 19.3126L83.5477 19.0215L110.135 19.3129Z" fill="#BFD0D6"/>
<path opacity="0.67" d="M70.5988 33.7199C65.8286 37.474 74.8116 87.2097 70.5988 90.705C66.3859 94.2002 54.9633 95.1523 52.2462 101.89C49.529 108.627 41.2973 146.005 50.154 147.317C59.0106 148.628 52.4206 104.333 63.0905 101.89C73.7605 99.4464 83.8772 93.6812 83.5596 87.0553C83.2429 80.4294 87.4543 20.4539 70.5988 33.7199Z" fill="white"/>
<path opacity="0.67" d="M45.8719 172.883C37.8268 174.777 38.247 217.037 41.8741 218.289C47.723 220.307 55.153 170.697 45.8719 172.883Z" fill="white"/>
<path opacity="0.38" d="M73.3619 147.641C56.2755 159.061 55.4998 258.404 77.0383 271.911C98.5769 285.418 135.067 251.096 116.747 199.779C98.4263 148.463 93.2891 134.321 73.3619 147.641Z" fill="#F5F9FA"/>
<path opacity="0.3" d="M120.365 11.5586V23.0727C120.365 27.2169 113.422 30.8455 102.992 32.8722C97.4113 33.9579 90.8286 34.5869 83.7842 34.5869C65.1975 34.5869 49.8562 30.2211 47.5208 24.5748L47.2031 24.5794V11.5586H120.365Z" fill="#C9D4D6"/>
<path opacity="0.3" d="M83.7842 23.069C103.987 23.069 120.365 17.9139 120.365 11.5548C120.365 5.19574 103.987 0 83.7842 0C63.581 0 47.2031 5.15505 47.2031 11.5141C47.2031 17.8732 63.581 23.069 83.7842 23.069Z" fill="#E1ECEF"/>
<path d="M55.3539 23.0615C53.6111 23.7888 65.9192 30.4121 75.5015 29.0234C85.0841 27.635 58.5481 21.7291 55.3539 23.0615Z" fill="#E1ECEF"/>
<path opacity="0.5" d="M63.0649 13.5098C67.1832 11.535 75.2319 10.1934 84.4875 10.1934C93.2437 10.1934 100.917 11.3942 105.207 13.1959C107.071 12.302 108.131 11.2779 108.131 10.1897C108.131 6.6979 97.2304 3.86719 83.7839 3.86719C70.3377 3.86719 59.4375 6.6979 59.4375 10.1897C59.4378 11.4077 60.7671 12.5446 63.0649 13.5098Z" fill="#C9D4D6"/>
</svg>
